<?xml version="1.0" encoding="UTF-8"?>
<svg xmlns="http://www.w3.org/2000/svg" width="720" height="360" viewBox="0 0 720 360" font-family="sans-serif">
<rect width="720" height="360" fill="#ffffff"/>
<text x="8" y="20" font-size="14" fill="#1f2933">Distance from the world's centre: road points against the land itself</text>
<line x1="70" y1="308" x2="696" y2="308" stroke="#1f2933" stroke-width="1"/>
<line x1="70" y1="308" x2="70" y2="34" stroke="#1f2933" stroke-width="1"/>
<text x="383.0" y="348" font-size="11" fill="#1f2933" text-anchor="middle">metres from the centre</text>
<text x="14" y="171.0" font-size="11" fill="#1f2933" text-anchor="middle" transform="rotate(-90 14 171.0)">share of samples</text>
<polyline points="81.2,268.1 103.5,244.9 125.9,212.5 148.2,304.7 170.6,308.0 193.0,308.0 215.3,298.9 237.7,102.1 260.0,103.7 282.4,184.3 304.8,83.0 327.1,103.7 349.5,48.1 371.8,90.5 394.2,78.8 416.5,63.9 438.9,220.8 461.2,277.3 483.6,293.9 506.0,246.6 528.3,173.5 550.7,165.2 573.0,159.4 595.4,235.8 617.8,69.7 640.1,112.0 662.5,237.4 684.8,308.0" fill="none" stroke="#2f6f8f" stroke-width="2.2"/>
<text x="692" y="48" font-size="11" fill="#2f6f8f" text-anchor="end">road points</text>
<polyline points="81.2,302.2 103.5,278.9 125.9,296.4 148.2,253.2 170.6,255.7 193.0,264.8 215.3,233.3 237.7,205.9 260.0,241.6 282.4,225.0 304.8,210.0 327.1,198.4 349.5,232.4 371.8,201.7 394.2,154.4 416.5,190.9 438.9,195.1 461.2,170.2 483.6,138.6 506.0,127.8 528.3,104.6 550.7,112.0 573.0,196.7 595.4,102.1 617.8,78.0 640.1,34.0 662.5,58.1 684.8,240.7" fill="none" stroke="#c0621a" stroke-width="2.2"/>
<text x="692" y="64" font-size="11" fill="#c0621a" text-anchor="end">the land itself</text>
<text x="226.5" y="324" font-size="10" fill="#1f2933" text-anchor="middle">2,574</text>
<text x="383.0" y="324" font-size="10" fill="#1f2933" text-anchor="middle">5,148</text>
<text x="539.5" y="324" font-size="10" fill="#1f2933" text-anchor="middle">7,722</text>
<text x="696.0" y="324" font-size="10" fill="#1f2933" text-anchor="middle">10,296</text>
</svg>
