<?xml version="1.0" encoding="UTF-8"?>
<svg xmlns="http://www.w3.org/2000/svg" width="720" height="360" viewBox="0 0 720 360" font-family="sans-serif">
<rect width="720" height="360" fill="#ffffff"/>
<text x="8" y="20" font-size="14" fill="#1f2933">Iteration budget: what more of it buys</text>
<line x1="70" y1="308" x2="696" y2="308" stroke="#1f2933" stroke-width="1"/>
<line x1="70" y1="308" x2="70" y2="34" stroke="#1f2933" stroke-width="1"/>
<text x="383.0" y="348" font-size="11" fill="#1f2933" text-anchor="middle">PathfindingMaxIterations</text>
<text x="14" y="171.0" font-size="11" fill="#1f2933" text-anchor="middle" transform="rotate(-90 14 171.0)">roads, or failed attempts</text>
<polyline points="70.0,115.0 97.2,77.6 151.7,65.1 206.1,46.5 369.4,37.1 696.0,34.0" fill="none" stroke="#2f6f8f" stroke-width="2.4"/>
<circle cx="70.0" cy="115.0" r="3" fill="#2f6f8f"/>
<circle cx="97.2" cy="77.6" r="3" fill="#2f6f8f"/>
<circle cx="151.7" cy="65.1" r="3" fill="#2f6f8f"/>
<circle cx="206.1" cy="46.5" r="3" fill="#2f6f8f"/>
<circle cx="369.4" cy="37.1" r="3" fill="#2f6f8f"/>
<circle cx="696.0" cy="34.0" r="3" fill="#2f6f8f"/>
<text x="692" y="48" font-size="11" fill="#2f6f8f" text-anchor="end">roads built</text>
<polyline points="70.0,158.5 97.2,205.2 151.7,248.8 206.1,283.1 369.4,295.5 696.0,304.9" fill="none" stroke="#c0621a" stroke-width="2.4"/>
<circle cx="70.0" cy="158.5" r="3" fill="#c0621a"/>
<circle cx="97.2" cy="205.2" r="3" fill="#c0621a"/>
<circle cx="151.7" cy="248.8" r="3" fill="#c0621a"/>
<circle cx="206.1" cy="283.1" r="3" fill="#c0621a"/>
<circle cx="369.4" cy="295.5" r="3" fill="#c0621a"/>
<circle cx="696.0" cy="304.9" r="3" fill="#c0621a"/>
<text x="692" y="64" font-size="11" fill="#c0621a" text-anchor="end">budget spent</text>
<polyline points="70.0,158.5 97.2,149.2 151.7,118.1 206.1,102.5 369.4,99.4 696.0,93.2" fill="none" stroke="#3f7a4d" stroke-width="2.4"/>
<circle cx="70.0" cy="158.5" r="3" fill="#3f7a4d"/>
<circle cx="97.2" cy="149.2" r="3" fill="#3f7a4d"/>
<circle cx="151.7" cy="118.1" r="3" fill="#3f7a4d"/>
<circle cx="206.1" cy="102.5" r="3" fill="#3f7a4d"/>
<circle cx="369.4" cy="99.4" r="3" fill="#3f7a4d"/>
<circle cx="696.0" cy="93.2" r="3" fill="#3f7a4d"/>
<text x="692" y="80" font-size="11" fill="#3f7a4d" text-anchor="end">frontier exhausted</text>
<text x="70.0" y="324" font-size="10" fill="#1f2933" text-anchor="middle">5k</text>
<text x="97.2" y="324" font-size="10" fill="#1f2933" text-anchor="middle">10k</text>
<text x="151.7" y="324" font-size="10" fill="#1f2933" text-anchor="middle">20k</text>
<text x="206.1" y="324" font-size="10" fill="#1f2933" text-anchor="middle">30k</text>
<text x="369.4" y="324" font-size="10" fill="#1f2933" text-anchor="middle">60k</text>
<text x="696.0" y="324" font-size="10" fill="#1f2933" text-anchor="middle">120k</text>
<line x1="70" y1="239.5" x2="696" y2="239.5" stroke="#d7dee5"/>
<text x="64" y="243.5" font-size="10" fill="#1f2933" text-anchor="end">22</text>
<line x1="70" y1="171.0" x2="696" y2="171.0" stroke="#d7dee5"/>
<text x="64" y="175.0" font-size="10" fill="#1f2933" text-anchor="end">44</text>
<line x1="70" y1="102.5" x2="696" y2="102.5" stroke="#d7dee5"/>
<text x="64" y="106.5" font-size="10" fill="#1f2933" text-anchor="end">66</text>
<line x1="70" y1="34.0" x2="696" y2="34.0" stroke="#d7dee5"/>
<text x="64" y="38.0" font-size="10" fill="#1f2933" text-anchor="end">88</text>
</svg>
